<mxfile host="65bd71144e">
    <diagram id="Yn5komwbJGL9zZvzXt3j" name="PÃ¡gina-1">
        <mxGraphModel dx="576" dy="462" grid="1" gridSize="10" guides="1" tooltips="1" connect="1" arrows="1" fold="1" page="1" pageScale="1" pageWidth="827" pageHeight="1169" math="0" shadow="0">
            <root>
                <mxCell id="0"/>
                <mxCell id="1" parent="0"/>
                <mxCell id="5" style="edgeStyle=none;html=1;entryX=0.5;entryY=0;entryDx=0;entryDy=0;" edge="1" parent="1" source="2" target="3">
                    <mxGeometry relative="1" as="geometry"/>
                </mxCell>
                <mxCell id="2" value="INICIO" style="rounded=1;whiteSpace=wrap;html=1;fillColor=#a20025;fontColor=#ffffff;strokeColor=#6F0000;" vertex="1" parent="1">
                    <mxGeometry x="190" y="110" width="120" height="60" as="geometry"/>
                </mxCell>
                <mxCell id="6" style="edgeStyle=none;html=1;entryX=0.5;entryY=0;entryDx=0;entryDy=0;" edge="1" parent="1" source="3" target="4">
                    <mxGeometry relative="1" as="geometry"/>
                </mxCell>
                <mxCell id="3" value="num" style="shape=parallelogram;perimeter=parallelogramPerimeter;whiteSpace=wrap;html=1;fixedSize=1;fillColor=#0050ef;fontColor=#ffffff;strokeColor=#001DBC;" vertex="1" parent="1">
                    <mxGeometry x="190" y="230" width="120" height="60" as="geometry"/>
                </mxCell>
                <mxCell id="12" style="html=1;entryX=0.5;entryY=0;entryDx=0;entryDy=0;exitX=0;exitY=0.5;exitDx=0;exitDy=0;" edge="1" parent="1" source="4" target="9">
                    <mxGeometry relative="1" as="geometry">
                        <Array as="points">
                            <mxPoint x="90" y="390"/>
                        </Array>
                    </mxGeometry>
                </mxCell>
                <mxCell id="14" style="edgeStyle=none;html=1;entryX=0.5;entryY=0;entryDx=0;entryDy=0;" edge="1" parent="1" source="4" target="10">
                    <mxGeometry relative="1" as="geometry">
                        <Array as="points">
                            <mxPoint x="400" y="390"/>
                        </Array>
                    </mxGeometry>
                </mxCell>
                <mxCell id="4" value="n%2=0" style="rhombus;whiteSpace=wrap;html=1;fillColor=#a20025;fontColor=#ffffff;strokeColor=#6F0000;" vertex="1" parent="1">
                    <mxGeometry x="182.5" y="330" width="135" height="120" as="geometry"/>
                </mxCell>
                <mxCell id="9" value="&quot;No es par&quot;" style="shape=document;whiteSpace=wrap;html=1;boundedLbl=1;fillColor=#0050ef;fontColor=#ffffff;strokeColor=#001DBC;" vertex="1" parent="1">
                    <mxGeometry x="30" y="490" width="120" height="80" as="geometry"/>
                </mxCell>
                <mxCell id="10" value="&quot;Es par&quot;" style="shape=document;whiteSpace=wrap;html=1;boundedLbl=1;fillColor=#0050ef;fontColor=#ffffff;strokeColor=#001DBC;" vertex="1" parent="1">
                    <mxGeometry x="340" y="480" width="120" height="80" as="geometry"/>
                </mxCell>
                <mxCell id="16" value="" style="endArrow=none;html=1;exitX=0.467;exitY=0.938;exitDx=0;exitDy=0;exitPerimeter=0;" edge="1" parent="1" source="9">
                    <mxGeometry width="50" height="50" relative="1" as="geometry">
                        <mxPoint x="270" y="530" as="sourcePoint"/>
                        <mxPoint x="250" y="680" as="targetPoint"/>
                        <Array as="points">
                            <mxPoint x="86" y="680"/>
                        </Array>
                    </mxGeometry>
                </mxCell>
                <mxCell id="18" value="" style="endArrow=none;html=1;entryX=0.542;entryY=0.863;entryDx=0;entryDy=0;entryPerimeter=0;" edge="1" parent="1" target="10">
                    <mxGeometry width="50" height="50" relative="1" as="geometry">
                        <mxPoint x="250" y="680" as="sourcePoint"/>
                        <mxPoint x="320" y="600" as="targetPoint"/>
                        <Array as="points">
                            <mxPoint x="405" y="680"/>
                        </Array>
                    </mxGeometry>
                </mxCell>
                <mxCell id="19" value="FIN" style="ellipse;whiteSpace=wrap;html=1;fillColor=#a20025;fontColor=#ffffff;strokeColor=#6F0000;" vertex="1" parent="1">
                    <mxGeometry x="190" y="730" width="110" height="60" as="geometry"/>
                </mxCell>
                <mxCell id="21" value="" style="endArrow=classic;html=1;entryX=0.5;entryY=0;entryDx=0;entryDy=0;" edge="1" parent="1" target="19">
                    <mxGeometry width="50" height="50" relative="1" as="geometry">
                        <mxPoint x="240" y="680" as="sourcePoint"/>
                        <mxPoint x="320" y="720" as="targetPoint"/>
                    </mxGeometry>
                </mxCell>
            </root>
        </mxGraphModel>
    </diagram>
</mxfile>